# xmcd CD database file
#
# Track frame offsets:
#	150
#	20366
#	39246
#	59895
#	85293
#	100090
#	117462
#	133603
#	153334
#	173762
#	192535
#	210444
#
# Disc length: 3083 seconds
#
# Revision: 0
# Processed by: cddbd v1.5PL3 Copyright (c) Steve Scherf et al.
# Submitted via: freeDB plugin v1.0
#
DISCID=a10c090c
DTITLE=ＤＲＥＡＭＳ　ＣＯＭＥ　ＴＲＵＥ - ＤＲＥＡＭＡＮＩＡ　ＤＲＥＡＭＳ　ＣＯＭＥ　ＴＲＵＥ〜ＳＭＯＯＴＨ　ＧＲＯＯＶＥ　ＣＯＬＬＥＣＴＩＯＮ〜
DYEAR=1900
DGENRE=Misc
TTITLE0=よろこびのうた
TTITLE1=ＲＯＭＡＮＣＥ
TTITLE2=２４／７−ＴＷＥＮＴＹ　ＦＯＵＲ／ＳＥＶＥＮ−
TTITLE3=決戦は金曜日（Ｖｅｒｓｉｏｎ　ｏｆ　“ＴＨＥ　ＤＹＮＡＭＩＴＥＳ”）
TTITLE4=ｆｌｏｗｅｒｓ
TTITLE5=ｇｏ　ｏｎ，ｂａｂｙ！
TTITLE6=スキスキスー
TTITLE7=みつばち
TTITLE8=誘惑
TTITLE9=ｍａｋｅ　ｍｅ　ｙｏｕｒ　ｏｗｎ
TTITLE10=そんなの愛じゃない
TTITLE11=ＰＥＡＣＥ！
EXTD=
EXTT0=
EXTT1=
EXTT2=
EXTT3=
EXTT4=
EXTT5=
EXTT6=
EXTT7=
EXTT8=
EXTT9=
EXTT10=
EXTT11=
PLAYORDER=
